<svg xmlns="http://www.w3.org/2000/svg" viewBox="0 0 512 512" width="512" height="512">
  <defs>
    <linearGradient id="bgG" x1="0%" y1="0%" x2="100%" y2="100%">
      <stop offset="0%" stop-color="#FAFBF7"/>
      <stop offset="100%" stop-color="#EEF3EB"/>
    </linearGradient>
    <linearGradient id="vG" x1="0%" y1="0%" x2="100%" y2="100%">
      <stop offset="0%" stop-color="#97D84C"/>
      <stop offset="100%" stop-color="#74C365"/>
    </linearGradient>
    <linearGradient id="fG" x1="0%" y1="0%" x2="100%" y2="100%">
      <stop offset="0%" stop-color="#B5EB67"/>
      <stop offset="45%" stop-color="#97D84C"/>
      <stop offset="100%" stop-color="#69B82A"/>
    </linearGradient>
    <linearGradient id="sG" x1="0%" y1="0%" x2="100%" y2="100%">
      <stop offset="0%" stop-color="#3D7812" stop-opacity="0.95"/>
      <stop offset="100%" stop-color="#1D420E" stop-opacity="0.98"/>
    </linearGradient>
    <linearGradient id="hG" x1="0%" y1="0%" x2="100%" y2="100%">
      <stop offset="0%" stop-color="#8ED83E"/>
      <stop offset="100%" stop-color="#B5EB67"/>
    </linearGradient>
    <linearGradient id="spG" x1="0%" y1="0%" x2="100%" y2="100%">
      <stop offset="0%" stop-color="#FFF" stop-opacity="0.7"/>
      <stop offset="100%" stop-color="#FFF" stop-opacity="0"/>
    </linearGradient>
    <filter id="gl" x="-25%" y="-25%" width="150%" height="150%">
      <feDropShadow dx="0" dy="12" stdDeviation="14" flood-color="#112218" flood-opacity="0.12"/>
      <feDropShadow dx="0" dy="6" stdDeviation="10" flood-color="#74C365" flood-opacity="0.35"/>
    </filter>
  </defs>
  <rect width="512" height="512" rx="112" fill="url(#bgG)"/>
  <rect width="508" height="508" x="2" y="2" rx="110" fill="none" stroke="#E5EBE3" stroke-width="2"/>
  <g transform="translate(90,68) scale(0.66)" filter="url(#gl)">
    <path d="M140,115 C140,82 172,60 205,75 L240,92 C252,98 252,112 252,122 L252,325 L140,375Z" fill="url(#vG)"/>
    <path d="M175,255 L252,300 L252,385 L175,340Z" fill="url(#sG)"/>
    <path d="M140,195 C140,182 150,175 162,180 L252,130 L252,325 L140,375Z" fill="url(#fG)" opacity="0.97"/>
    <path d="M140,195 L252,130 L232,118 L140,172Z" fill="url(#spG)" opacity="0.8"/>
    <path d="M175,300 L350,300 C382,300 400,320 400,344 C400,368 382,385 350,385 L175,385Z" fill="url(#hG)"/>
    <path d="M175,300 L355,300 C367,300 376,307 376,314 L175,314Z" fill="url(#spG)" opacity="0.5"/>
  </g>
</svg>
